<?xml version="1.0" ?><svg height="48px" version="1.1" viewBox="0 0 48 48" width="48px" xmlns="http://www.w3.org/2000/svg" xmlns:xlink="http://www.w3.org/1999/xlink"><title/><desc/><g fill="none" fill-rule="evenodd" id="Page-1" stroke="none" stroke-width="1"><g id="Artboard-Copy" transform="translate(-227.000000, -249.000000)"><path d="M237.001,258.9995 C235.896,258.9995 235,259.8955 235,261.0005 L235,262.9995 C235,264.1045 235.896,265.0005 237.001,265.0005 L239,265.0005 C240.105,265.0005 241.001,264.1045 241.001,262.9995 L241.001,261.0005 C241.001,259.8955 240.105,258.9995 239,258.9995 L237.001,258.9995 Z M237.001,269.0005 C235.896,269.0005 235,269.8945 235,270.9995 L235,273.0005 C235,274.1055 235.896,274.9995 237.001,274.9995 L239,274.9995 C240.105,274.9995 241.001,274.1055 241.001,273.0005 L241.001,270.9995 C241.001,269.8945 240.105,269.0005 239,269.0005 L237.001,269.0005 Z M237.001,278.9995 C235.896,278.9995 235,279.8955 235,281.0005 L235,282.9995 C235,284.1045 235.896,285.0005 237.001,285.0005 L239,285.0005 C240.105,285.0005 241.001,284.1045 241.001,282.9995 L241.001,281.0005 C241.001,279.8955 240.105,278.9995 239,278.9995 L237.001,278.9995 Z M245.001,258.9995 C243.896,258.9995 243,259.8955 243,261.0005 L243,262.9995 C243,264.1045 243.896,265.0005 245.001,265.0005 L264.998,265.0005 C266.104,265.0005 267,264.1045 267,262.9995 L267,261.0005 C267,259.8955 266.104,258.9995 264.998,258.9995 L245.001,258.9995 Z M245.001,269.0005 C243.896,269.0005 243,269.8945 243,270.9995 L243,273.0005 C243,274.1055 243.896,274.9995 245.001,274.9995 L264.998,274.9995 C266.104,274.9995 267,274.1055 267,273.0005 L267,270.9995 C267,269.8945 266.104,269.0005 264.998,269.0005 L245.001,269.0005 Z M245.001,278.9995 C243.896,278.9995 243,279.8955 243,281.0005 L243,282.9995 C243,284.1045 243.896,285.0005 245.001,285.0005 L264.998,285.0005 C266.104,285.0005 267,284.1045 267,282.9995 L267,281.0005 C267,279.8955 266.104,278.9995 264.998,278.9995 L245.001,278.9995 Z" fill="#000000" id="list1"/><g id="slices" transform="translate(47.000000, 9.000000)"/></g></g></svg>